<svg width="1366" height="771" viewBox="0 0 1366 771" fill="none" xmlns="http://www.w3.org/2000/svg">
<path fill-rule="evenodd" clip-rule="evenodd" d="M1366 718.569C1347.5 714.74 1329.08 710.973 1310.99 707.273C1278.27 700.581 1246.6 694.104 1217.39 687.862C1110.52 665.024 998.866 652.59 885.94 640.015C824.929 633.221 763.545 626.386 702.342 617.845C640.836 609.263 577.857 597.105 515.316 585.032C395.552 561.913 277.395 539.104 174.259 542.301C75.035 545.376 42.9722 571.551 10.2842 598.236L10.2839 598.237L10.2837 598.237C6.88785 601.009 3.4853 603.787 0 606.545V771H1366V718.569Z" fill="#DDDBF2" fill-opacity="0.26"/>
<path fill-rule="evenodd" clip-rule="evenodd" d="M1366 0H0V27.6503C79.0078 49.9323 172.154 69.6349 261.729 85.4662C372.219 104.994 481.981 108.913 592.365 112.854L592.365 112.854L592.366 112.854C635.236 114.385 678.2 115.919 721.337 118.372C749.93 119.998 779.133 122.067 808.302 124.134L808.302 124.134C896.408 130.376 984.192 136.596 1053.85 130.511C1119.23 124.8 1150.1 108.243 1181.04 91.6541C1191.39 86.1002 1201.76 80.5429 1213.42 75.3877C1230.71 67.7491 1241.26 58.8166 1251.75 49.9279C1265.59 38.2065 1279.34 26.5613 1308.34 18.0602C1324.57 13.3029 1344.23 9.33452 1366 5.86685V0Z" fill="#DDDBF2" fill-opacity="0.26"/>
</svg>
